<?xml version="1.0" encoding="utf-8" standalone="no"?>
<!DOCTYPE svg PUBLIC "-//W3C//DTD SVG 1.1//EN"
  "http://www.w3.org/Graphics/SVG/1.1/DTD/svg11.dtd">
<svg xmlns:xlink="http://www.w3.org/1999/xlink" width="460.8pt" height="345.6pt" viewBox="0 0 460.8 345.6" xmlns="http://www.w3.org/2000/svg" version="1.1">
 <metadata>
  <rdf:RDF xmlns:dc="http://purl.org/dc/elements/1.1/" xmlns:cc="http://creativecommons.org/ns#" xmlns:rdf="http://www.w3.org/1999/02/22-rdf-syntax-ns#">
   <cc:Work>
    <dc:type rdf:resource="http://purl.org/dc/dcmitype/StillImage"/>
    <dc:date>2022-10-17T07:25:08.606658</dc:date>
    <dc:format>image/svg+xml</dc:format>
    <dc:creator>
     <cc:Agent>
      <dc:title>Matplotlib v3.6.1, https://matplotlib.org/</dc:title>
     </cc:Agent>
    </dc:creator>
   </cc:Work>
  </rdf:RDF>
 </metadata>
 <defs>
  <style type="text/css">*{stroke-linejoin: round; stroke-linecap: butt}</style>
 </defs>
 <g id="figure_1">
  <g id="patch_1">
   <path d="M 0 345.6 
L 460.8 345.6 
L 460.8 0 
L 0 0 
z
" style="fill: #ffffff"/>
  </g>
  <g id="axes_1">
   <g id="patch_2">
    <path d="M 48.53 149.419323 
L 450 149.419323 
L 450 12.384963 
L 48.53 12.384963 
z
" style="fill: #e5e5e5"/>
   </g>
   <g id="matplotlib.axis_1">
    <g id="xtick_1">
     <g id="line2d_1">
      <path d="M 166.975027 149.419323 
L 166.975027 12.384963 
" clip-path="url(#p0623ea3f27)" style="fill: none; stroke: #ffffff; stroke-width: 0.8; stroke-linecap: square"/>
     </g>
    </g>
    <g id="xtick_2">
     <g id="line2d_2">
      <path d="M 288.650226 149.419323 
L 288.650226 12.384963 
" clip-path="url(#p0623ea3f27)" style="fill: none; stroke: #ffffff; stroke-width: 0.8; stroke-linecap: square"/>
     </g>
    </g>
    <g id="xtick_3">
     <g id="line2d_3">
      <path d="M 410.325425 149.419323 
L 410.325425 12.384963 
" clip-path="url(#p0623ea3f27)" style="fill: none; stroke: #ffffff; stroke-width: 0.8; stroke-linecap: square"/>
     </g>
    </g>
    <g id="xtick_4"/>
    <g id="xtick_5"/>
    <g id="xtick_6"/>
    <g id="xtick_7"/>
    <g id="xtick_8"/>
    <g id="xtick_9"/>
    <g id="xtick_10"/>
    <g id="xtick_11"/>
    <g id="xtick_12"/>
    <g id="xtick_13"/>
    <g id="xtick_14"/>
    <g id="xtick_15"/>
    <g id="xtick_16"/>
    <g id="xtick_17"/>
    <g id="xtick_18"/>
    <g id="xtick_19"/>
    <g id="xtick_20"/>
    <g id="xtick_21"/>
    <g id="xtick_22"/>
    <g id="xtick_23"/>
    <g id="xtick_24"/>
    <g id="xtick_25"/>
    <g id="xtick_26"/>
    <g id="xtick_27"/>
    <g id="xtick_28"/>
   </g>
   <g id="matplotlib.axis_2">
    <g id="ytick_1">
     <g id="line2d_4">
      <path d="M 48.53 143.190488 
L 450 143.190488 
" clip-path="url(#p0623ea3f27)" style="fill: none; stroke: #ffffff; stroke-width: 0.8; stroke-linecap: square"/>
     </g>
     <g id="line2d_5">
      <defs>
       <path id="m6a31d5aa8c" d="M 0 0 
L -3.5 0 
" style="stroke: #555555; stroke-width: 0.8"/>
      </defs>
      <g>
       <use xlink:href="#m6a31d5aa8c" x="48.53" y="143.190488" style="fill: #555555; stroke: #555555; stroke-width: 0.8"/>
      </g>
     </g>
     <g id="text_1">
      <!-- 0.0 -->
      <g style="fill: #555555" transform="translate(25.626875 146.989707) scale(0.1 -0.1)">
       <defs>
        <path id="DejaVuSans-30" d="M 2034 4250 
Q 1547 4250 1301 3770 
Q 1056 3291 1056 2328 
Q 1056 1369 1301 889 
Q 1547 409 2034 409 
Q 2525 409 2770 889 
Q 3016 1369 3016 2328 
Q 3016 3291 2770 3770 
Q 2525 4250 2034 4250 
z
M 2034 4750 
Q 2819 4750 3233 4129 
Q 3647 3509 3647 2328 
Q 3647 1150 3233 529 
Q 2819 -91 2034 -91 
Q 1250 -91 836 529 
Q 422 1150 422 2328 
Q 422 3509 836 4129 
Q 1250 4750 2034 4750 
z
" transform="scale(0.015625)"/>
        <path id="DejaVuSans-2e" d="M 684 794 
L 1344 794 
L 1344 0 
L 684 0 
L 684 794 
z
" transform="scale(0.015625)"/>
       </defs>
       <use xlink:href="#DejaVuSans-30"/>
       <use xlink:href="#DejaVuSans-2e" x="63.623047"/>
       <use xlink:href="#DejaVuSans-30" x="95.410156"/>
      </g>
     </g>
    </g>
    <g id="ytick_2">
     <g id="line2d_6">
      <path d="M 48.53 111.161771 
L 450 111.161771 
" clip-path="url(#p0623ea3f27)" style="fill: none; stroke: #ffffff; stroke-width: 0.8; stroke-linecap: square"/>
     </g>
     <g id="line2d_7">
      <g>
       <use xlink:href="#m6a31d5aa8c" x="48.53" y="111.161771" style="fill: #555555; stroke: #555555; stroke-width: 0.8"/>
      </g>
     </g>
     <g id="text_2">
      <!-- 0.5 -->
      <g style="fill: #555555" transform="translate(25.626875 114.960989) scale(0.1 -0.1)">
       <defs>
        <path id="DejaVuSans-35" d="M 691 4666 
L 3169 4666 
L 3169 4134 
L 1269 4134 
L 1269 2991 
Q 1406 3038 1543 3061 
Q 1681 3084 1819 3084 
Q 2600 3084 3056 2656 
Q 3513 2228 3513 1497 
Q 3513 744 3044 326 
Q 2575 -91 1722 -91 
Q 1428 -91 1123 -41 
Q 819 9 494 109 
L 494 744 
Q 775 591 1075 516 
Q 1375 441 1709 441 
Q 2250 441 2565 725 
Q 2881 1009 2881 1497 
Q 2881 1984 2565 2268 
Q 2250 2553 1709 2553 
Q 1456 2553 1204 2497 
Q 953 2441 691 2322 
L 691 4666 
z
" transform="scale(0.015625)"/>
       </defs>
       <use xlink:href="#DejaVuSans-30"/>
       <use xlink:href="#DejaVuSans-2e" x="63.623047"/>
       <use xlink:href="#DejaVuSans-35" x="95.410156"/>
      </g>
     </g>
    </g>
    <g id="ytick_3">
     <g id="line2d_8">
      <path d="M 48.53 79.133053 
L 450 79.133053 
" clip-path="url(#p0623ea3f27)" style="fill: none; stroke: #ffffff; stroke-width: 0.8; stroke-linecap: square"/>
     </g>
     <g id="line2d_9">
      <g>
       <use xlink:href="#m6a31d5aa8c" x="48.53" y="79.133053" style="fill: #555555; stroke: #555555; stroke-width: 0.8"/>
      </g>
     </g>
     <g id="text_3">
      <!-- 1.0 -->
      <g style="fill: #555555" transform="translate(25.626875 82.932272) scale(0.1 -0.1)">
       <defs>
        <path id="DejaVuSans-31" d="M 794 531 
L 1825 531 
L 1825 4091 
L 703 3866 
L 703 4441 
L 1819 4666 
L 2450 4666 
L 2450 531 
L 3481 531 
L 3481 0 
L 794 0 
L 794 531 
z
" transform="scale(0.015625)"/>
       </defs>
       <use xlink:href="#DejaVuSans-31"/>
       <use xlink:href="#DejaVuSans-2e" x="63.623047"/>
       <use xlink:href="#DejaVuSans-30" x="95.410156"/>
      </g>
     </g>
    </g>
    <g id="ytick_4">
     <g id="line2d_10">
      <path d="M 48.53 47.104336 
L 450 47.104336 
" clip-path="url(#p0623ea3f27)" style="fill: none; stroke: #ffffff; stroke-width: 0.8; stroke-linecap: square"/>
     </g>
     <g id="line2d_11">
      <g>
       <use xlink:href="#m6a31d5aa8c" x="48.53" y="47.104336" style="fill: #555555; stroke: #555555; stroke-width: 0.8"/>
      </g>
     </g>
     <g id="text_4">
      <!-- 1.5 -->
      <g style="fill: #555555" transform="translate(25.626875 50.903555) scale(0.1 -0.1)">
       <use xlink:href="#DejaVuSans-31"/>
       <use xlink:href="#DejaVuSans-2e" x="63.623047"/>
       <use xlink:href="#DejaVuSans-35" x="95.410156"/>
      </g>
     </g>
    </g>
    <g id="ytick_5">
     <g id="line2d_12">
      <path d="M 48.53 15.075618 
L 450 15.075618 
" clip-path="url(#p0623ea3f27)" style="fill: none; stroke: #ffffff; stroke-width: 0.8; stroke-linecap: square"/>
     </g>
     <g id="line2d_13">
      <g>
       <use xlink:href="#m6a31d5aa8c" x="48.53" y="15.075618" style="fill: #555555; stroke: #555555; stroke-width: 0.8"/>
      </g>
     </g>
     <g id="text_5">
      <!-- 2.0 -->
      <g style="fill: #555555" transform="translate(25.626875 18.874837) scale(0.1 -0.1)">
       <defs>
        <path id="DejaVuSans-32" d="M 1228 531 
L 3431 531 
L 3431 0 
L 469 0 
L 469 531 
Q 828 903 1448 1529 
Q 2069 2156 2228 2338 
Q 2531 2678 2651 2914 
Q 2772 3150 2772 3378 
Q 2772 3750 2511 3984 
Q 2250 4219 1831 4219 
Q 1534 4219 1204 4116 
Q 875 4013 500 3803 
L 500 4441 
Q 881 4594 1212 4672 
Q 1544 4750 1819 4750 
Q 2544 4750 2975 4387 
Q 3406 4025 3406 3419 
Q 3406 3131 3298 2873 
Q 3191 2616 2906 2266 
Q 2828 2175 2409 1742 
Q 1991 1309 1228 531 
z
" transform="scale(0.015625)"/>
       </defs>
       <use xlink:href="#DejaVuSans-32"/>
       <use xlink:href="#DejaVuSans-2e" x="63.623047"/>
       <use xlink:href="#DejaVuSans-30" x="95.410156"/>
      </g>
     </g>
    </g>
    <g id="text_6">
     <!-- 1s -->
     <g style="fill: #555555" transform="translate(19.13125 87.845268) rotate(-90) scale(0.12 -0.12)">
      <defs>
       <path id="DejaVuSans-73" d="M 2834 3397 
L 2834 2853 
Q 2591 2978 2328 3040 
Q 2066 3103 1784 3103 
Q 1356 3103 1142 2972 
Q 928 2841 928 2578 
Q 928 2378 1081 2264 
Q 1234 2150 1697 2047 
L 1894 2003 
Q 2506 1872 2764 1633 
Q 3022 1394 3022 966 
Q 3022 478 2636 193 
Q 2250 -91 1575 -91 
Q 1294 -91 989 -36 
Q 684 19 347 128 
L 347 722 
Q 666 556 975 473 
Q 1284 391 1588 391 
Q 1994 391 2212 530 
Q 2431 669 2431 922 
Q 2431 1156 2273 1281 
Q 2116 1406 1581 1522 
L 1381 1569 
Q 847 1681 609 1914 
Q 372 2147 372 2553 
Q 372 3047 722 3315 
Q 1072 3584 1716 3584 
Q 2034 3584 2315 3537 
Q 2597 3491 2834 3397 
z
" transform="scale(0.015625)"/>
      </defs>
      <use xlink:href="#DejaVuSans-31"/>
      <use xlink:href="#DejaVuSans-73" x="63.623047"/>
     </g>
    </g>
   </g>
   <g id="line2d_14">
    <path d="M -1 140.435329 
L 66.778636 140.43379 
L 103.406521 133.405448 
L 124.83246 123.644616 
L 140.034406 112.327141 
L 151.825951 100.337959 
L 161.460344 88.330453 
L 169.606108 76.774901 
L 176.66229 65.997842 
L 188.453835 47.55165 
L 193.490298 40.073805 
L 198.088229 33.794056 
L 202.317915 28.689921 
L 206.233993 24.713092 
L 209.879774 21.797513 
L 213.290175 19.865672 
L 216.493754 18.833448 
L 219.514168 18.613798 
L 222.371235 19.119532 
L 225.08172 20.265347 
L 227.659932 21.969293 
L 230.118183 24.15377 
L 232.467142 26.746186 
L 234.716114 29.679328 
L 236.873265 32.891533 
L 238.9458 36.326694 
L 240.940107 39.934154 
L 244.716204 47.489359 
L 248.240367 55.252201 
L 253.121638 66.789148 
L 264.287817 93.845086 
L 267.933598 102.053183 
L 271.343998 109.160785 
L 274.547577 115.230538 
L 277.567992 120.354519 
L 280.425059 124.638142 
L 283.135543 128.189477 
L 285.713756 131.112512 
L 288.172007 133.503236 
L 290.520965 135.447711 
L 292.769937 137.021429 
L 294.927088 138.289451 
L 297.67279 139.598961 
L 300.282845 140.569592 
L 303.373952 141.431998 
L 306.294191 142.016681 
L 310.129034 142.528905 
L 314.682911 142.877363 
L 320.636884 143.086024 
L 330.845662 143.17936 
L 377.670261 143.190488 
L 431.751364 143.190488 
L 431.751364 143.190488 
" clip-path="url(#p0623ea3f27)" style="fill: none; stroke: #e24a33; stroke-width: 1.5; stroke-linecap: square"/>
   </g>
   <g id="line2d_15">
    <path d="M -1 140.435329 
L 66.778636 140.43379 
L 103.406521 133.405448 
L 124.83246 123.644616 
L 140.034406 112.327141 
L 151.825951 100.337959 
L 161.460344 88.330453 
L 169.606108 76.774901 
L 176.66229 65.997842 
L 188.453835 47.55165 
L 193.490298 40.073805 
L 198.088229 33.794056 
L 202.317915 28.689921 
L 206.233993 24.713092 
L 209.879774 21.797513 
L 213.290175 19.865672 
L 216.493754 18.833448 
L 219.514168 18.613798 
L 222.371235 19.119532 
L 225.08172 20.265347 
L 227.659932 21.969293 
L 230.118183 24.15377 
L 232.467142 26.746186 
L 234.716114 29.679328 
L 236.873265 32.891533 
L 238.9458 36.326694 
L 240.940107 39.934154 
L 244.716204 47.489359 
L 248.240367 55.252201 
L 253.121638 66.789148 
L 264.287817 93.845086 
L 267.933598 102.053183 
L 271.343998 109.160785 
L 274.547577 115.230538 
L 277.567992 120.354519 
L 280.425059 124.638142 
L 283.135543 128.189477 
L 285.713756 131.112512 
L 288.172007 133.503236 
L 290.520965 135.447711 
L 292.769937 137.021429 
L 294.927088 138.289451 
L 297.67279 139.598961 
L 300.282845 140.569592 
L 303.373952 141.431998 
L 306.294191 142.016681 
L 310.129034 142.528905 
L 314.682911 142.877363 
L 320.636884 143.086024 
L 330.845662 143.17936 
L 377.670261 143.190488 
L 431.751364 143.190488 
L 431.751364 143.190488 
" clip-path="url(#p0623ea3f27)" style="fill: none; stroke-dasharray: 5.55,2.4; stroke-dashoffset: 0; stroke: #348abd; stroke-width: 1.5"/>
   </g>
   <g id="patch_3">
    <path d="M 48.53 149.419323 
L 48.53 12.384963 
" style="fill: none; stroke: #ffffff; stroke-linejoin: miter; stroke-linecap: square"/>
   </g>
   <g id="patch_4">
    <path d="M 450 149.419323 
L 450 12.384963 
" style="fill: none; stroke: #ffffff; stroke-linejoin: miter; stroke-linecap: square"/>
   </g>
   <g id="patch_5">
    <path d="M 48.53 149.419323 
L 450 149.419323 
" style="fill: none; stroke: #ffffff; stroke-linejoin: miter; stroke-linecap: square"/>
   </g>
   <g id="patch_6">
    <path d="M 48.53 12.384963 
L 450 12.384963 
" style="fill: none; stroke: #ffffff; stroke-linejoin: miter; stroke-linecap: square"/>
   </g>
   <g id="legend_1">
    <g id="patch_7">
     <path d="M 318.864062 35.125588 
L 443 35.125588 
Q 445 35.125588 445 33.125588 
L 445 19.384963 
Q 445 17.384963 443 17.384963 
L 318.864062 17.384963 
Q 316.864062 17.384963 316.864062 19.384963 
L 316.864062 33.125588 
Q 316.864062 35.125588 318.864062 35.125588 
z
" style="fill: #e5e5e5; opacity: 0.75; stroke: #cccccc; stroke-width: 0.5; stroke-linejoin: miter"/>
    </g>
    <g id="line2d_16">
     <path d="M 320.864062 25.545901 
L 330.864062 25.545901 
L 340.864062 25.545901 
" style="fill: none; stroke: #e24a33; stroke-width: 1.5; stroke-linecap: square"/>
    </g>
    <g id="text_7">
     <!-- 1s₀α -->
     <g transform="translate(348.864062 29.045901) scale(0.1 -0.1)">
      <defs>
       <path id="DejaVuSans-2080" d="M 1781 2115 
Q 1625 2384 1309 2384 
Q 994 2384 838 2115 
Q 678 1846 678 1309 
Q 678 768 838 500 
Q 994 231 1309 231 
Q 1625 231 1781 500 
Q 1941 768 1941 1309 
Q 1941 1846 1781 2115 
z
M 1309 2662 
Q 1813 2662 2078 2315 
Q 2344 1968 2344 1309 
Q 2344 646 2078 299 
Q 1813 -47 1309 -47 
Q 803 -47 537 299 
Q 272 646 272 1309 
Q 272 1968 537 2315 
Q 803 2662 1309 2662 
z
" transform="scale(0.015625)"/>
       <path id="DejaVuSans-3b1" d="M 2644 1628 
L 2506 2350 
Q 2366 3091 1809 3091 
Q 1391 3091 1200 2747 
Q 959 2316 959 1747 
Q 959 1059 1194 731 
Q 1431 397 1809 397 
Q 2228 397 2453 1063 
L 2644 1628 
z
M 2966 2584 
L 3275 3500 
L 3788 3500 
L 3147 1603 
L 3272 919 
Q 3300 766 3409 638 
Q 3538 488 3638 488 
L 3913 488 
L 3913 0 
L 3569 0 
Q 3275 0 3013 263 
Q 2884 394 2831 669 
Q 2688 322 2394 50 
Q 2256 -78 1809 -78 
Q 1075 -78 719 397 
Q 353 888 353 1747 
Q 353 2666 750 3097 
Q 1191 3578 1809 3578 
Q 2781 3578 2966 2584 
z
" transform="scale(0.015625)"/>
      </defs>
      <use xlink:href="#DejaVuSans-31"/>
      <use xlink:href="#DejaVuSans-73" x="63.623047"/>
      <use xlink:href="#DejaVuSans-2080" x="115.722656"/>
      <use xlink:href="#DejaVuSans-3b1" x="155.810547"/>
     </g>
    </g>
    <g id="line2d_17">
     <path d="M 391.0375 25.545901 
L 401.0375 25.545901 
L 411.0375 25.545901 
" style="fill: none; stroke-dasharray: 5.55,2.4; stroke-dashoffset: 0; stroke: #348abd; stroke-width: 1.5"/>
    </g>
    <g id="text_8">
     <!-- 1s₀β -->
     <g transform="translate(419.0375 29.045901) scale(0.1 -0.1)">
      <defs>
       <path id="DejaVuSans-3b2" d="M 1178 216 
L 1178 -1331 
L 600 -1331 
L 600 3478 
Q 600 4903 1931 4903 
Q 3288 4903 3288 3700 
Q 3288 2844 2750 2531 
Q 3625 2250 3625 1416 
Q 3625 -66 2119 -66 
Q 1456 -66 1178 216 
z
M 1178 966 
Q 1525 425 2141 425 
Q 3041 425 3041 1406 
Q 3041 2288 1591 2219 
L 1591 2750 
Q 2725 2750 2725 3750 
Q 2725 4434 1994 4434 
Q 1178 4434 1178 3459 
L 1178 966 
z
" transform="scale(0.015625)"/>
      </defs>
      <use xlink:href="#DejaVuSans-31"/>
      <use xlink:href="#DejaVuSans-73" x="63.623047"/>
      <use xlink:href="#DejaVuSans-2080" x="115.722656"/>
      <use xlink:href="#DejaVuSans-3b2" x="155.810547"/>
     </g>
    </g>
   </g>
  </g>
  <g id="axes_2">
   <g id="patch_8">
    <path d="M 48.53 297.8755 
L 450 297.8755 
L 450 160.841141 
L 48.53 160.841141 
z
" style="fill: #e5e5e5"/>
   </g>
   <g id="matplotlib.axis_3">
    <g id="xtick_29">
     <g id="line2d_18">
      <path d="M 166.975027 297.8755 
L 166.975027 160.841141 
" clip-path="url(#paef6ab76f0)" style="fill: none; stroke: #ffffff; stroke-width: 0.8; stroke-linecap: square"/>
     </g>
     <g id="line2d_19">
      <defs>
       <path id="m33c8df4064" d="M 0 0 
L 0 3.5 
" style="stroke: #555555; stroke-width: 0.8"/>
      </defs>
      <g>
       <use xlink:href="#m33c8df4064" x="166.975027" y="297.8755" style="fill: #555555; stroke: #555555; stroke-width: 0.8"/>
      </g>
     </g>
     <g id="text_9">
      <!-- $\mathdefault{10^{-1}}$ -->
      <g style="fill: #555555" transform="translate(155.225027 312.473937) scale(0.1 -0.1)">
       <defs>
        <path id="DejaVuSans-2212" d="M 678 2272 
L 4684 2272 
L 4684 1741 
L 678 1741 
L 678 2272 
z
" transform="scale(0.015625)"/>
       </defs>
       <use xlink:href="#DejaVuSans-31" transform="translate(0 0.684375)"/>
       <use xlink:href="#DejaVuSans-30" transform="translate(63.623047 0.684375)"/>
       <use xlink:href="#DejaVuSans-2212" transform="translate(128.203125 38.965625) scale(0.7)"/>
       <use xlink:href="#DejaVuSans-31" transform="translate(186.855469 38.965625) scale(0.7)"/>
      </g>
     </g>
    </g>
    <g id="xtick_30">
     <g id="line2d_20">
      <path d="M 288.650226 297.8755 
L 288.650226 160.841141 
" clip-path="url(#paef6ab76f0)" style="fill: none; stroke: #ffffff; stroke-width: 0.8; stroke-linecap: square"/>
     </g>
     <g id="line2d_21">
      <g>
       <use xlink:href="#m33c8df4064" x="288.650226" y="297.8755" style="fill: #555555; stroke: #555555; stroke-width: 0.8"/>
      </g>
     </g>
     <g id="text_10">
      <!-- $\mathdefault{10^{0}}$ -->
      <g style="fill: #555555" transform="translate(279.850226 312.473937) scale(0.1 -0.1)">
       <use xlink:href="#DejaVuSans-31" transform="translate(0 0.765625)"/>
       <use xlink:href="#DejaVuSans-30" transform="translate(63.623047 0.765625)"/>
       <use xlink:href="#DejaVuSans-30" transform="translate(128.203125 39.046875) scale(0.7)"/>
      </g>
     </g>
    </g>
    <g id="xtick_31">
     <g id="line2d_22">
      <path d="M 410.325425 297.8755 
L 410.325425 160.841141 
" clip-path="url(#paef6ab76f0)" style="fill: none; stroke: #ffffff; stroke-width: 0.8; stroke-linecap: square"/>
     </g>
     <g id="line2d_23">
      <g>
       <use xlink:href="#m33c8df4064" x="410.325425" y="297.8755" style="fill: #555555; stroke: #555555; stroke-width: 0.8"/>
      </g>
     </g>
     <g id="text_11">
      <!-- $\mathdefault{10^{1}}$ -->
      <g style="fill: #555555" transform="translate(401.525425 312.473937) scale(0.1 -0.1)">
       <use xlink:href="#DejaVuSans-31" transform="translate(0 0.684375)"/>
       <use xlink:href="#DejaVuSans-30" transform="translate(63.623047 0.684375)"/>
       <use xlink:href="#DejaVuSans-31" transform="translate(128.203125 38.965625) scale(0.7)"/>
      </g>
     </g>
    </g>
    <g id="xtick_32">
     <g id="line2d_24">
      <defs>
       <path id="m0eb98a2f68" d="M 0 0 
L 0 2 
" style="stroke: #555555; stroke-width: 0.6"/>
      </defs>
      <g>
       <use xlink:href="#m0eb98a2f68" x="81.927713" y="297.8755" style="fill: #555555; stroke: #555555; stroke-width: 0.6"/>
      </g>
     </g>
    </g>
    <g id="xtick_33">
     <g id="line2d_25">
      <g>
       <use xlink:href="#m0eb98a2f68" x="103.353652" y="297.8755" style="fill: #555555; stroke: #555555; stroke-width: 0.6"/>
      </g>
     </g>
    </g>
    <g id="xtick_34">
     <g id="line2d_26">
      <g>
       <use xlink:href="#m0eb98a2f68" x="118.555597" y="297.8755" style="fill: #555555; stroke: #555555; stroke-width: 0.6"/>
      </g>
     </g>
    </g>
    <g id="xtick_35">
     <g id="line2d_27">
      <g>
       <use xlink:href="#m0eb98a2f68" x="130.347142" y="297.8755" style="fill: #555555; stroke: #555555; stroke-width: 0.6"/>
      </g>
     </g>
    </g>
    <g id="xtick_36">
     <g id="line2d_28">
      <g>
       <use xlink:href="#m0eb98a2f68" x="139.981536" y="297.8755" style="fill: #555555; stroke: #555555; stroke-width: 0.6"/>
      </g>
     </g>
    </g>
    <g id="xtick_37">
     <g id="line2d_29">
      <g>
       <use xlink:href="#m0eb98a2f68" x="148.1273" y="297.8755" style="fill: #555555; stroke: #555555; stroke-width: 0.6"/>
      </g>
     </g>
    </g>
    <g id="xtick_38">
     <g id="line2d_30">
      <g>
       <use xlink:href="#m0eb98a2f68" x="155.183482" y="297.8755" style="fill: #555555; stroke: #555555; stroke-width: 0.6"/>
      </g>
     </g>
    </g>
    <g id="xtick_39">
     <g id="line2d_31">
      <g>
       <use xlink:href="#m0eb98a2f68" x="161.407475" y="297.8755" style="fill: #555555; stroke: #555555; stroke-width: 0.6"/>
      </g>
     </g>
    </g>
    <g id="xtick_40">
     <g id="line2d_32">
      <g>
       <use xlink:href="#m0eb98a2f68" x="203.602912" y="297.8755" style="fill: #555555; stroke: #555555; stroke-width: 0.6"/>
      </g>
     </g>
    </g>
    <g id="xtick_41">
     <g id="line2d_33">
      <g>
       <use xlink:href="#m0eb98a2f68" x="225.028851" y="297.8755" style="fill: #555555; stroke: #555555; stroke-width: 0.6"/>
      </g>
     </g>
    </g>
    <g id="xtick_42">
     <g id="line2d_34">
      <g>
       <use xlink:href="#m0eb98a2f68" x="240.230796" y="297.8755" style="fill: #555555; stroke: #555555; stroke-width: 0.6"/>
      </g>
     </g>
    </g>
    <g id="xtick_43">
     <g id="line2d_35">
      <g>
       <use xlink:href="#m0eb98a2f68" x="252.022341" y="297.8755" style="fill: #555555; stroke: #555555; stroke-width: 0.6"/>
      </g>
     </g>
    </g>
    <g id="xtick_44">
     <g id="line2d_36">
      <g>
       <use xlink:href="#m0eb98a2f68" x="261.656735" y="297.8755" style="fill: #555555; stroke: #555555; stroke-width: 0.6"/>
      </g>
     </g>
    </g>
    <g id="xtick_45">
     <g id="line2d_37">
      <g>
       <use xlink:href="#m0eb98a2f68" x="269.802499" y="297.8755" style="fill: #555555; stroke: #555555; stroke-width: 0.6"/>
      </g>
     </g>
    </g>
    <g id="xtick_46">
     <g id="line2d_38">
      <g>
       <use xlink:href="#m0eb98a2f68" x="276.858681" y="297.8755" style="fill: #555555; stroke: #555555; stroke-width: 0.6"/>
      </g>
     </g>
    </g>
    <g id="xtick_47">
     <g id="line2d_39">
      <g>
       <use xlink:href="#m0eb98a2f68" x="283.082674" y="297.8755" style="fill: #555555; stroke: #555555; stroke-width: 0.6"/>
      </g>
     </g>
    </g>
    <g id="xtick_48">
     <g id="line2d_40">
      <g>
       <use xlink:href="#m0eb98a2f68" x="325.27811" y="297.8755" style="fill: #555555; stroke: #555555; stroke-width: 0.6"/>
      </g>
     </g>
    </g>
    <g id="xtick_49">
     <g id="line2d_41">
      <g>
       <use xlink:href="#m0eb98a2f68" x="346.704049" y="297.8755" style="fill: #555555; stroke: #555555; stroke-width: 0.6"/>
      </g>
     </g>
    </g>
    <g id="xtick_50">
     <g id="line2d_42">
      <g>
       <use xlink:href="#m0eb98a2f68" x="361.905995" y="297.8755" style="fill: #555555; stroke: #555555; stroke-width: 0.6"/>
      </g>
     </g>
    </g>
    <g id="xtick_51">
     <g id="line2d_43">
      <g>
       <use xlink:href="#m0eb98a2f68" x="373.69754" y="297.8755" style="fill: #555555; stroke: #555555; stroke-width: 0.6"/>
      </g>
     </g>
    </g>
    <g id="xtick_52">
     <g id="line2d_44">
      <g>
       <use xlink:href="#m0eb98a2f68" x="383.331934" y="297.8755" style="fill: #555555; stroke: #555555; stroke-width: 0.6"/>
      </g>
     </g>
    </g>
    <g id="xtick_53">
     <g id="line2d_45">
      <g>
       <use xlink:href="#m0eb98a2f68" x="391.477698" y="297.8755" style="fill: #555555; stroke: #555555; stroke-width: 0.6"/>
      </g>
     </g>
    </g>
    <g id="xtick_54">
     <g id="line2d_46">
      <g>
       <use xlink:href="#m0eb98a2f68" x="398.53388" y="297.8755" style="fill: #555555; stroke: #555555; stroke-width: 0.6"/>
      </g>
     </g>
    </g>
    <g id="xtick_55">
     <g id="line2d_47">
      <g>
       <use xlink:href="#m0eb98a2f68" x="404.757873" y="297.8755" style="fill: #555555; stroke: #555555; stroke-width: 0.6"/>
      </g>
     </g>
    </g>
    <g id="xtick_56">
     <g id="line2d_48">
      <g>
       <use xlink:href="#m0eb98a2f68" x="446.953309" y="297.8755" style="fill: #555555; stroke: #555555; stroke-width: 0.6"/>
      </g>
     </g>
    </g>
    <g id="text_12">
     <!-- $r$ [au] -->
     <g style="fill: #555555" transform="translate(232.705 327.67175) scale(0.12 -0.12)">
      <defs>
       <path id="DejaVuSans-Oblique-72" d="M 2853 2969 
Q 2766 3016 2653 3041 
Q 2541 3066 2413 3066 
Q 1953 3066 1609 2717 
Q 1266 2369 1153 1784 
L 800 0 
L 225 0 
L 909 3500 
L 1484 3500 
L 1375 2956 
Q 1603 3259 1920 3421 
Q 2238 3584 2597 3584 
Q 2691 3584 2781 3573 
Q 2872 3563 2963 3538 
L 2853 2969 
z
" transform="scale(0.015625)"/>
       <path id="DejaVuSans-20" transform="scale(0.015625)"/>
       <path id="DejaVuSans-5b" d="M 550 4863 
L 1875 4863 
L 1875 4416 
L 1125 4416 
L 1125 -397 
L 1875 -397 
L 1875 -844 
L 550 -844 
L 550 4863 
z
" transform="scale(0.015625)"/>
       <path id="DejaVuSans-61" d="M 2194 1759 
Q 1497 1759 1228 1600 
Q 959 1441 959 1056 
Q 959 750 1161 570 
Q 1363 391 1709 391 
Q 2188 391 2477 730 
Q 2766 1069 2766 1631 
L 2766 1759 
L 2194 1759 
z
M 3341 1997 
L 3341 0 
L 2766 0 
L 2766 531 
Q 2569 213 2275 61 
Q 1981 -91 1556 -91 
Q 1019 -91 701 211 
Q 384 513 384 1019 
Q 384 1609 779 1909 
Q 1175 2209 1959 2209 
L 2766 2209 
L 2766 2266 
Q 2766 2663 2505 2880 
Q 2244 3097 1772 3097 
Q 1472 3097 1187 3025 
Q 903 2953 641 2809 
L 641 3341 
Q 956 3463 1253 3523 
Q 1550 3584 1831 3584 
Q 2591 3584 2966 3190 
Q 3341 2797 3341 1997 
z
" transform="scale(0.015625)"/>
       <path id="DejaVuSans-75" d="M 544 1381 
L 544 3500 
L 1119 3500 
L 1119 1403 
Q 1119 906 1312 657 
Q 1506 409 1894 409 
Q 2359 409 2629 706 
Q 2900 1003 2900 1516 
L 2900 3500 
L 3475 3500 
L 3475 0 
L 2900 0 
L 2900 538 
Q 2691 219 2414 64 
Q 2138 -91 1772 -91 
Q 1169 -91 856 284 
Q 544 659 544 1381 
z
M 1991 3584 
L 1991 3584 
z
" transform="scale(0.015625)"/>
       <path id="DejaVuSans-5d" d="M 1947 4863 
L 1947 -844 
L 622 -844 
L 622 -397 
L 1369 -397 
L 1369 4416 
L 622 4416 
L 622 4863 
L 1947 4863 
z
" transform="scale(0.015625)"/>
      </defs>
      <use xlink:href="#DejaVuSans-Oblique-72" transform="translate(0 0.015625)"/>
      <use xlink:href="#DejaVuSans-20" transform="translate(41.113281 0.015625)"/>
      <use xlink:href="#DejaVuSans-5b" transform="translate(72.900391 0.015625)"/>
      <use xlink:href="#DejaVuSans-61" transform="translate(111.914062 0.015625)"/>
      <use xlink:href="#DejaVuSans-75" transform="translate(173.193359 0.015625)"/>
      <use xlink:href="#DejaVuSans-5d" transform="translate(236.572266 0.015625)"/>
     </g>
    </g>
   </g>
   <g id="matplotlib.axis_4">
    <g id="ytick_6">
     <g id="line2d_49">
      <path d="M 48.53 291.646665 
L 450 291.646665 
" clip-path="url(#paef6ab76f0)" style="fill: none; stroke: #ffffff; stroke-width: 0.8; stroke-linecap: square"/>
     </g>
     <g id="line2d_50">
      <g>
       <use xlink:href="#m6a31d5aa8c" x="48.53" y="291.646665" style="fill: #555555; stroke: #555555; stroke-width: 0.8"/>
      </g>
     </g>
     <g id="text_13">
      <!-- 0.0 -->
      <g style="fill: #555555" transform="translate(25.626875 295.445884) scale(0.1 -0.1)">
       <use xlink:href="#DejaVuSans-30"/>
       <use xlink:href="#DejaVuSans-2e" x="63.623047"/>
       <use xlink:href="#DejaVuSans-30" x="95.410156"/>
      </g>
     </g>
    </g>
    <g id="ytick_7">
     <g id="line2d_51">
      <path d="M 48.53 260.182942 
L 450 260.182942 
" clip-path="url(#paef6ab76f0)" style="fill: none; stroke: #ffffff; stroke-width: 0.8; stroke-linecap: square"/>
     </g>
     <g id="line2d_52">
      <g>
       <use xlink:href="#m6a31d5aa8c" x="48.53" y="260.182942" style="fill: #555555; stroke: #555555; stroke-width: 0.8"/>
      </g>
     </g>
     <g id="text_14">
      <!-- 0.1 -->
      <g style="fill: #555555" transform="translate(25.626875 263.982161) scale(0.1 -0.1)">
       <use xlink:href="#DejaVuSans-30"/>
       <use xlink:href="#DejaVuSans-2e" x="63.623047"/>
       <use xlink:href="#DejaVuSans-31" x="95.410156"/>
      </g>
     </g>
    </g>
    <g id="ytick_8">
     <g id="line2d_53">
      <path d="M 48.53 228.719218 
L 450 228.719218 
" clip-path="url(#paef6ab76f0)" style="fill: none; stroke: #ffffff; stroke-width: 0.8; stroke-linecap: square"/>
     </g>
     <g id="line2d_54">
      <g>
       <use xlink:href="#m6a31d5aa8c" x="48.53" y="228.719218" style="fill: #555555; stroke: #555555; stroke-width: 0.8"/>
      </g>
     </g>
     <g id="text_15">
      <!-- 0.2 -->
      <g style="fill: #555555" transform="translate(25.626875 232.518437) scale(0.1 -0.1)">
       <use xlink:href="#DejaVuSans-30"/>
       <use xlink:href="#DejaVuSans-2e" x="63.623047"/>
       <use xlink:href="#DejaVuSans-32" x="95.410156"/>
      </g>
     </g>
    </g>
    <g id="ytick_9">
     <g id="line2d_55">
      <path d="M 48.53 197.255495 
L 450 197.255495 
" clip-path="url(#paef6ab76f0)" style="fill: none; stroke: #ffffff; stroke-width: 0.8; stroke-linecap: square"/>
     </g>
     <g id="line2d_56">
      <g>
       <use xlink:href="#m6a31d5aa8c" x="48.53" y="197.255495" style="fill: #555555; stroke: #555555; stroke-width: 0.8"/>
      </g>
     </g>
     <g id="text_16">
      <!-- 0.3 -->
      <g style="fill: #555555" transform="translate(25.626875 201.054714) scale(0.1 -0.1)">
       <defs>
        <path id="DejaVuSans-33" d="M 2597 2516 
Q 3050 2419 3304 2112 
Q 3559 1806 3559 1356 
Q 3559 666 3084 287 
Q 2609 -91 1734 -91 
Q 1441 -91 1130 -33 
Q 819 25 488 141 
L 488 750 
Q 750 597 1062 519 
Q 1375 441 1716 441 
Q 2309 441 2620 675 
Q 2931 909 2931 1356 
Q 2931 1769 2642 2001 
Q 2353 2234 1838 2234 
L 1294 2234 
L 1294 2753 
L 1863 2753 
Q 2328 2753 2575 2939 
Q 2822 3125 2822 3475 
Q 2822 3834 2567 4026 
Q 2313 4219 1838 4219 
Q 1578 4219 1281 4162 
Q 984 4106 628 3988 
L 628 4550 
Q 988 4650 1302 4700 
Q 1616 4750 1894 4750 
Q 2613 4750 3031 4423 
Q 3450 4097 3450 3541 
Q 3450 3153 3228 2886 
Q 3006 2619 2597 2516 
z
" transform="scale(0.015625)"/>
       </defs>
       <use xlink:href="#DejaVuSans-30"/>
       <use xlink:href="#DejaVuSans-2e" x="63.623047"/>
       <use xlink:href="#DejaVuSans-33" x="95.410156"/>
      </g>
     </g>
    </g>
    <g id="ytick_10">
     <g id="line2d_57">
      <path d="M 48.53 165.791771 
L 450 165.791771 
" clip-path="url(#paef6ab76f0)" style="fill: none; stroke: #ffffff; stroke-width: 0.8; stroke-linecap: square"/>
     </g>
     <g id="line2d_58">
      <g>
       <use xlink:href="#m6a31d5aa8c" x="48.53" y="165.791771" style="fill: #555555; stroke: #555555; stroke-width: 0.8"/>
      </g>
     </g>
     <g id="text_17">
      <!-- 0.4 -->
      <g style="fill: #555555" transform="translate(25.626875 169.59099) scale(0.1 -0.1)">
       <defs>
        <path id="DejaVuSans-34" d="M 2419 4116 
L 825 1625 
L 2419 1625 
L 2419 4116 
z
M 2253 4666 
L 3047 4666 
L 3047 1625 
L 3713 1625 
L 3713 1100 
L 3047 1100 
L 3047 0 
L 2419 0 
L 2419 1100 
L 313 1100 
L 313 1709 
L 2253 4666 
z
" transform="scale(0.015625)"/>
       </defs>
       <use xlink:href="#DejaVuSans-30"/>
       <use xlink:href="#DejaVuSans-2e" x="63.623047"/>
       <use xlink:href="#DejaVuSans-34" x="95.410156"/>
      </g>
     </g>
    </g>
    <g id="text_18">
     <!-- 2s -->
     <g style="fill: #555555" transform="translate(19.13125 236.301445) rotate(-90) scale(0.12 -0.12)">
      <use xlink:href="#DejaVuSans-32"/>
      <use xlink:href="#DejaVuSans-73" x="63.623047"/>
     </g>
    </g>
   </g>
   <g id="line2d_59">
    <path d="M -1 291.197477 
L 66.778636 291.197226 
L 103.406521 290.054025 
L 124.83246 288.474467 
L 140.034406 286.658496 
L 151.825951 284.758992 
L 161.460344 282.890501 
L 188.453835 277.051647 
L 193.490298 276.161858 
L 198.088229 275.517911 
L 202.317915 275.11341 
L 206.233993 274.936529 
L 209.879774 274.971512 
L 213.290175 275.199881 
L 216.493754 275.601403 
L 219.514168 276.154855 
L 222.371235 276.838633 
L 225.08172 277.631221 
L 230.118183 279.459289 
L 234.716114 281.480387 
L 240.940107 284.568821 
L 248.240367 288.202361 
L 251.544122 289.619396 
L 254.653423 290.689553 
L 257.589893 291.372725 
L 260.371739 291.642758 
L 263.014433 291.485617 
L 264.287817 291.24535 
L 266.746068 290.443354 
L 269.095026 289.220892 
L 271.343998 287.593332 
L 273.501149 285.58128 
L 275.573684 283.209436 
L 277.567992 280.505587 
L 279.489762 277.499729 
L 281.344088 274.2233 
L 283.135543 270.708528 
L 285.713756 265.060448 
L 288.172007 259.057293 
L 290.520965 252.803363 
L 293.498816 244.243607 
L 296.999623 233.482408 
L 309.061465 195.574114 
L 311.691006 188.335895 
L 313.704311 183.323154 
L 315.643717 179.014017 
L 317.514456 175.405393 
L 319.321226 172.483182 
L 320.636884 170.728458 
L 321.920579 169.334769 
L 323.173828 168.288042 
L 324.398042 167.572812 
L 325.594536 167.172553 
L 326.764536 167.069975 
L 327.909192 167.247288 
L 329.029577 167.686429 
L 330.1267 168.369254 
L 331.201508 169.277712 
L 332.601401 170.80923 
L 333.965163 172.669039 
L 335.621815 175.395174 
L 337.228105 178.498954 
L 339.093341 182.626115 
L 341.189367 187.861345 
L 343.487245 194.215602 
L 346.492042 203.26842 
L 350.823761 217.183915 
L 357.264768 237.88069 
L 360.417365 247.284873 
L 363.199211 254.913185 
L 365.657462 261.033222 
L 368.006421 266.287583 
L 370.255393 270.754478 
L 372.412544 274.519595 
L 374.485079 277.669473 
L 376.479386 280.287187 
L 378.401157 282.449766 
L 380.395464 284.349368 
L 382.317234 285.878376 
L 384.301555 287.180225 
L 386.339123 288.260529 
L 388.541228 289.178303 
L 390.884976 289.918546 
L 393.566796 290.52753 
L 396.635613 290.990377 
L 400.404619 291.324693 
L 405.510658 291.53648 
L 414.002934 291.633073 
L 431.751364 291.646665 
L 431.751364 291.646665 
" clip-path="url(#paef6ab76f0)" style="fill: none; stroke: #e24a33; stroke-width: 1.5; stroke-linecap: square"/>
   </g>
   <g id="line2d_60">
    <path d="M -1 291.197477 
L 66.778636 291.197226 
L 103.406521 290.054025 
L 124.83246 288.474467 
L 140.034406 286.658496 
L 151.825951 284.758992 
L 161.460344 282.890501 
L 188.453835 277.051647 
L 193.490298 276.161857 
L 198.088229 275.517911 
L 202.317915 275.11341 
L 206.233993 274.936529 
L 209.879774 274.971512 
L 213.290175 275.199881 
L 216.493754 275.601403 
L 219.514168 276.154855 
L 222.371235 276.838633 
L 225.08172 277.631221 
L 230.118183 279.459289 
L 234.716114 281.480387 
L 240.940107 284.568821 
L 248.240367 288.202361 
L 251.544122 289.619396 
L 254.653423 290.689553 
L 257.589893 291.372725 
L 260.371739 291.642758 
L 263.014433 291.485617 
L 264.287817 291.24535 
L 266.746068 290.443354 
L 269.095026 289.220892 
L 271.343998 287.593332 
L 273.501149 285.58128 
L 275.573684 283.209436 
L 277.567992 280.505587 
L 279.489762 277.499729 
L 281.344088 274.2233 
L 283.135543 270.708528 
L 285.713756 265.060448 
L 288.172007 259.057293 
L 290.520965 252.803363 
L 293.498816 244.243607 
L 296.999623 233.482408 
L 309.061465 195.574114 
L 311.691006 188.335895 
L 313.704311 183.323154 
L 315.643717 179.014017 
L 317.514456 175.405393 
L 319.321226 172.483182 
L 320.636884 170.728458 
L 321.920579 169.334769 
L 323.173828 168.288042 
L 324.398042 167.572812 
L 325.594536 167.172553 
L 326.764536 167.069975 
L 327.909192 167.247288 
L 329.029577 167.686429 
L 330.1267 168.369254 
L 331.201508 169.277712 
L 332.601401 170.80923 
L 333.965163 172.669039 
L 335.621815 175.395174 
L 337.228105 178.498954 
L 339.093341 182.626115 
L 341.189367 187.861345 
L 343.487245 194.215602 
L 346.492042 203.26842 
L 350.823761 217.183915 
L 357.264768 237.88069 
L 360.417365 247.284873 
L 363.199211 254.913185 
L 365.657462 261.033222 
L 368.006421 266.287583 
L 370.255393 270.754478 
L 372.412544 274.519595 
L 374.485079 277.669473 
L 376.479386 280.287187 
L 378.401157 282.449766 
L 380.395464 284.349368 
L 382.317234 285.878376 
L 384.301555 287.180225 
L 386.339123 288.260529 
L 388.541228 289.178303 
L 390.884976 289.918546 
L 393.566796 290.52753 
L 396.635613 290.990377 
L 400.404619 291.324693 
L 405.510658 291.53648 
L 414.002934 291.633073 
L 431.751364 291.646665 
L 431.751364 291.646665 
" clip-path="url(#paef6ab76f0)" style="fill: none; stroke-dasharray: 5.55,2.4; stroke-dashoffset: 0; stroke: #348abd; stroke-width: 1.5"/>
   </g>
   <g id="patch_9">
    <path d="M 48.53 297.8755 
L 48.53 160.841141 
" style="fill: none; stroke: #ffffff; stroke-linejoin: miter; stroke-linecap: square"/>
   </g>
   <g id="patch_10">
    <path d="M 450 297.8755 
L 450 160.841141 
" style="fill: none; stroke: #ffffff; stroke-linejoin: miter; stroke-linecap: square"/>
   </g>
   <g id="patch_11">
    <path d="M 48.53 297.8755 
L 450 297.8755 
" style="fill: none; stroke: #ffffff; stroke-linejoin: miter; stroke-linecap: square"/>
   </g>
   <g id="patch_12">
    <path d="M 48.53 160.841141 
L 450 160.841141 
" style="fill: none; stroke: #ffffff; stroke-linejoin: miter; stroke-linecap: square"/>
   </g>
   <g id="legend_2">
    <g id="patch_13">
     <path d="M 55.53 183.581766 
L 179.665938 183.581766 
Q 181.665938 183.581766 181.665938 181.581766 
L 181.665938 167.841141 
Q 181.665938 165.841141 179.665938 165.841141 
L 55.53 165.841141 
Q 53.53 165.841141 53.53 167.841141 
L 53.53 181.581766 
Q 53.53 183.581766 55.53 183.581766 
z
" style="fill: #e5e5e5; opacity: 0.75; stroke: #cccccc; stroke-width: 0.5; stroke-linejoin: miter"/>
    </g>
    <g id="line2d_61">
     <path d="M 57.53 174.002078 
L 67.53 174.002078 
L 77.53 174.002078 
" style="fill: none; stroke: #e24a33; stroke-width: 1.5; stroke-linecap: square"/>
    </g>
    <g id="text_19">
     <!-- 2s₀α -->
     <g transform="translate(85.53 177.502078) scale(0.1 -0.1)">
      <use xlink:href="#DejaVuSans-32"/>
      <use xlink:href="#DejaVuSans-73" x="63.623047"/>
      <use xlink:href="#DejaVuSans-2080" x="115.722656"/>
      <use xlink:href="#DejaVuSans-3b1" x="155.810547"/>
     </g>
    </g>
    <g id="line2d_62">
     <path d="M 127.703438 174.002078 
L 137.703438 174.002078 
L 147.703438 174.002078 
" style="fill: none; stroke-dasharray: 5.55,2.4; stroke-dashoffset: 0; stroke: #348abd; stroke-width: 1.5"/>
    </g>
    <g id="text_20">
     <!-- 2s₀β -->
     <g transform="translate(155.703438 177.502078) scale(0.1 -0.1)">
      <use xlink:href="#DejaVuSans-32"/>
      <use xlink:href="#DejaVuSans-73" x="63.623047"/>
      <use xlink:href="#DejaVuSans-2080" x="115.722656"/>
      <use xlink:href="#DejaVuSans-3b2" x="155.810547"/>
     </g>
    </g>
   </g>
  </g>
 </g>
 <defs>
  <clipPath id="p0623ea3f27">
   <rect x="48.53" y="12.384963" width="401.47" height="137.034359"/>
  </clipPath>
  <clipPath id="paef6ab76f0">
   <rect x="48.53" y="160.841141" width="401.47" height="137.034359"/>
  </clipPath>
 </defs>
</svg>
